# xmcd
#
# Track frame offsets: 
#        150
#        13807
#        25584
#        38057
#        51084
#        64415
#        76267
#        89301
#        104201
#        117936
#        131324
#        145630
#        158623
#        171299
#        182599
#        196202
#
# Disc length: 2798 seconds
#
# Revision: 0
# Processed by: cddbd v1.5.1PL2 Copyright (c) Steve Scherf et al.
# Submitted via: ExactAudioCopy v0.95b3
#
DISCID=cd0aec10
DTITLE=Lonnie Johnson - Rambler's Blues
DYEAR=2002
DGENRE=Blues
TTITLE0=I Did All I Could
TTITLE1=What A Real Woman
TTITLE2=Falling Rain Blues
TTITLE3=Mean Old Bad Bug Blues
TTITLE4=Jersey Belle Blues
TTITLE5=Crowing Rooster
TTITLE6=Rambler's Blues
TTITLE7=Let All Married Women Alone
TTITLE8=Deep Minor Rhythm Stomp
TTITLE9=I'm Just Dumb
TTITLE10=Get Yourself Together
TTITLE11=In Love Again
TTITLE12=What A Woman
TTITLE13=Swing Out Rhythm
TTITLE14=Blue Ghost Blues
TTITLE15=Somebody's Got To Go
EXTD=
EXTT0=
EXTT1=
EXTT2=
EXTT3=
EXTT4=
EXTT5=
EXTT6=
EXTT7=
EXTT8=
EXTT9=
EXTT10=
EXTT11=
EXTT12=
EXTT13=
EXTT14=
EXTT15=
PLAYORDER=
